<svg width="165" height="54" viewBox="0 0 165 54" fill="none" xmlns="http://www.w3.org/2000/svg">
<path d="M47.7227 19.4219V8H56.2305V19.4219H54.918V9.17188H49.0508V19.4219H47.7227Z" fill="#079FAC"/>
<path d="M62.6133 19.5781C61.8424 19.5781 61.1628 19.4193 60.5742 19.1016C59.9857 18.7839 59.5273 18.2995 59.1992 17.6484C58.8711 16.9974 58.707 16.1771 58.707 15.1875C58.707 14.151 58.8789 13.3047 59.2227 12.6484C59.5716 11.987 60.0508 11.4974 60.6602 11.1797C61.2695 10.862 61.9622 10.7031 62.7383 10.7031C63.1654 10.7031 63.5768 10.7474 63.9727 10.8359C64.3737 10.9193 64.7018 11.026 64.957 11.1562L64.5664 12.2422C64.306 12.138 64.0039 12.0443 63.6602 11.9609C63.3216 11.8776 63.0039 11.8359 62.707 11.8359C62.1133 11.8359 61.6185 11.9635 61.2227 12.2188C60.832 12.474 60.5378 12.849 60.3398 13.3438C60.1471 13.8385 60.0508 14.4479 60.0508 15.1719C60.0508 15.8646 60.1445 16.4557 60.332 16.9453C60.5247 17.4349 60.8086 17.8099 61.1836 18.0703C61.5638 18.3255 62.0378 18.4531 62.6055 18.4531C63.0586 18.4531 63.4674 18.4062 63.832 18.3125C64.1966 18.2135 64.5273 18.099 64.8242 17.9688V19.125C64.5378 19.2708 64.2174 19.3828 63.8633 19.4609C63.5143 19.5391 63.0977 19.5781 62.6133 19.5781Z" fill="#079FAC"/>
<path d="M68.0898 10.8594V16.2422C68.0898 16.3464 68.0872 16.4818 68.082 16.6484C68.0768 16.8099 68.069 16.9844 68.0586 17.1719C68.0482 17.3542 68.0378 17.5312 68.0273 17.7031C68.0221 17.8698 68.0143 18.0078 68.0039 18.1172L72.6758 10.8594H74.2695V19.4219H73.0586V14.1719C73.0586 14.0052 73.0612 13.7917 73.0664 13.5312C73.0716 13.2708 73.0794 13.0156 73.0898 12.7656C73.1003 12.5104 73.1081 12.3125 73.1133 12.1719L68.457 19.4219H66.8555V10.8594H68.0898Z" fill="#079FAC"/>
<path d="M79.0664 15.0391L76.1055 10.8594H77.5898L79.8477 14.1562L82.0977 10.8594H83.5664L80.6055 15.0391L83.7305 19.4219H82.2461L79.8477 15.9297L77.4336 19.4219H75.9648L79.0664 15.0391Z" fill="#079FAC"/>
<path d="M92.7852 15.125C92.7852 15.8281 92.694 16.4557 92.5117 17.0078C92.3294 17.5599 92.0664 18.026 91.7227 18.4062C91.3789 18.7865 90.9622 19.0781 90.4727 19.2812C89.9883 19.4792 89.4388 19.5781 88.8242 19.5781C88.2513 19.5781 87.7253 19.4792 87.2461 19.2812C86.7721 19.0781 86.3607 18.7865 86.0117 18.4062C85.668 18.026 85.3997 17.5599 85.207 17.0078C85.0195 16.4557 84.9258 15.8281 84.9258 15.125C84.9258 14.1875 85.0846 13.3906 85.4023 12.7344C85.7201 12.0729 86.1732 11.5703 86.7617 11.2266C87.3555 10.8776 88.0612 10.7031 88.8789 10.7031C89.6602 10.7031 90.3424 10.8776 90.9258 11.2266C91.5143 11.5755 91.9701 12.0807 92.293 12.7422C92.6211 13.3984 92.7852 14.1927 92.7852 15.125ZM86.2695 15.125C86.2695 15.8125 86.3607 16.4089 86.543 16.9141C86.7253 17.4193 87.0065 17.8099 87.3867 18.0859C87.7669 18.362 88.2565 18.5 88.8555 18.5C89.4492 18.5 89.9362 18.362 90.3164 18.0859C90.7018 17.8099 90.9857 17.4193 91.168 16.9141C91.3503 16.4089 91.4414 15.8125 91.4414 15.125C91.4414 14.4427 91.3503 13.8542 91.168 13.3594C90.9857 12.8594 90.7044 12.474 90.3242 12.2031C89.944 11.9323 89.4518 11.7969 88.8477 11.7969C87.957 11.7969 87.3034 12.0911 86.8867 12.6797C86.4753 13.2682 86.2695 14.0833 86.2695 15.125Z" fill="#079FAC"/>
<path d="M101.449 19.4219H100.129V11.9453H97.5273C97.4232 13.2943 97.2904 14.4505 97.1289 15.4141C96.9727 16.3724 96.7747 17.1562 96.5352 17.7656C96.3008 18.3698 96.0143 18.8151 95.6758 19.1016C95.3424 19.3828 94.944 19.5234 94.4805 19.5234C94.3398 19.5234 94.207 19.5156 94.082 19.5C93.957 19.4844 93.8503 19.4583 93.7617 19.4219V18.4375C93.8294 18.4583 93.8997 18.474 93.9727 18.4844C94.0508 18.4948 94.1315 18.5 94.2148 18.5C94.4492 18.5 94.6628 18.4036 94.8555 18.2109C95.0534 18.013 95.2305 17.7161 95.3867 17.3203C95.5482 16.9245 95.6914 16.4245 95.8164 15.8203C95.9414 15.2109 96.0508 14.4948 96.1445 13.6719C96.2435 12.8438 96.3294 11.9062 96.4023 10.8594H101.449V19.4219Z" fill="#079FAC"/>
<path d="M111.566 15.125C111.566 15.8281 111.475 16.4557 111.293 17.0078C111.111 17.5599 110.848 18.026 110.504 18.4062C110.16 18.7865 109.743 19.0781 109.254 19.2812C108.77 19.4792 108.22 19.5781 107.605 19.5781C107.033 19.5781 106.507 19.4792 106.027 19.2812C105.553 19.0781 105.142 18.7865 104.793 18.4062C104.449 18.026 104.181 17.5599 103.988 17.0078C103.801 16.4557 103.707 15.8281 103.707 15.125C103.707 14.1875 103.866 13.3906 104.184 12.7344C104.501 12.0729 104.954 11.5703 105.543 11.2266C106.137 10.8776 106.842 10.7031 107.66 10.7031C108.441 10.7031 109.124 10.8776 109.707 11.2266C110.296 11.5755 110.751 12.0807 111.074 12.7422C111.402 13.3984 111.566 14.1927 111.566 15.125ZM105.051 15.125C105.051 15.8125 105.142 16.4089 105.324 16.9141C105.507 17.4193 105.788 17.8099 106.168 18.0859C106.548 18.362 107.038 18.5 107.637 18.5C108.23 18.5 108.717 18.362 109.098 18.0859C109.483 17.8099 109.767 17.4193 109.949 16.9141C110.132 16.4089 110.223 15.8125 110.223 15.125C110.223 14.4427 110.132 13.8542 109.949 13.3594C109.767 12.8594 109.486 12.474 109.105 12.2031C108.725 11.9323 108.233 11.7969 107.629 11.7969C106.738 11.7969 106.085 12.0911 105.668 12.6797C105.257 13.2682 105.051 14.0833 105.051 15.125Z" fill="#079FAC"/>
<path d="M119.004 10.8594V11.9609H115.113V19.4219H113.809V10.8594H119.004Z" fill="#079FAC"/>
<path d="M62.74 27.2618V27.6618C62.2867 27.6752 61.94 27.7285 61.7 27.8218C61.4733 27.9018 61.32 28.0618 61.24 28.3018C61.16 28.5285 61.12 28.8885 61.12 29.3818V39.3018C61.12 39.7818 61.16 40.1418 61.24 40.3818C61.32 40.6218 61.4733 40.7818 61.7 40.8618C61.94 40.9418 62.2867 40.9952 62.74 41.0218V41.4218C62.4333 41.3952 62.0467 41.3818 61.58 41.3818C61.1267 41.3685 60.6667 41.3618 60.2 41.3618C59.68 41.3618 59.1933 41.3685 58.74 41.3818C58.2867 41.3818 57.92 41.3952 57.64 41.4218V41.0218C58.0933 40.9952 58.4333 40.9418 58.66 40.8618C58.9 40.7818 59.06 40.6218 59.14 40.3818C59.22 40.1418 59.26 39.7818 59.26 39.3018V28.3018L59.34 28.3618L54.44 41.5218H54.12L49.08 28.5418V39.1018C49.08 39.5818 49.12 39.9618 49.2 40.2418C49.2933 40.5085 49.4667 40.7018 49.72 40.8218C49.9867 40.9285 50.38 40.9952 50.9 41.0218V41.4218C50.66 41.3952 50.3467 41.3818 49.96 41.3818C49.5733 41.3685 49.2067 41.3618 48.86 41.3618C48.5267 41.3618 48.1867 41.3685 47.84 41.3818C47.5067 41.3818 47.2267 41.3952 47 41.4218V41.0218C47.4533 40.9952 47.7933 40.9285 48.02 40.8218C48.26 40.7018 48.42 40.5085 48.5 40.2418C48.58 39.9618 48.62 39.5818 48.62 39.1018V29.3818C48.62 28.8885 48.58 28.5285 48.5 28.3018C48.42 28.0618 48.26 27.9018 48.02 27.8218C47.7933 27.7285 47.4533 27.6752 47 27.6618V27.2618C47.2267 27.2752 47.5067 27.2885 47.84 27.3018C48.1867 27.3152 48.5267 27.3218 48.86 27.3218C49.1533 27.3218 49.4533 27.3152 49.76 27.3018C50.08 27.2885 50.3467 27.2752 50.56 27.2618L55.1 39.2218L54.76 39.3818L59.26 27.3218C59.42 27.3218 59.5733 27.3218 59.72 27.3218C59.88 27.3218 60.04 27.3218 60.2 27.3218C60.6667 27.3218 61.1267 27.3152 61.58 27.3018C62.0467 27.2885 62.4333 27.2752 62.74 27.2618Z" fill="#0E3B49"/>
<path d="M66.9042 41.5618C66.3576 41.5618 65.8842 41.4618 65.4842 41.2618C65.0842 41.0485 64.7776 40.7552 64.5642 40.3818C64.3642 40.0085 64.2642 39.5752 64.2642 39.0818C64.2642 38.4952 64.3976 38.0152 64.6642 37.6418C64.9442 37.2685 65.2976 36.9685 65.7242 36.7418C66.1509 36.5152 66.5976 36.3285 67.0642 36.1818C67.5442 36.0218 67.9976 35.8752 68.4242 35.7418C68.8509 35.5952 69.1976 35.4285 69.4642 35.2418C69.7442 35.0552 69.8842 34.8085 69.8842 34.5018V33.2618C69.8842 32.7018 69.7976 32.2752 69.6242 31.9818C69.4642 31.6885 69.2442 31.4952 68.9642 31.4018C68.6842 31.2952 68.3709 31.2418 68.0242 31.2418C67.6909 31.2418 67.3309 31.2885 66.9442 31.3818C66.5709 31.4752 66.2709 31.6685 66.0442 31.9618C66.2976 32.0152 66.5176 32.1485 66.7042 32.3618C66.8909 32.5752 66.9842 32.8485 66.9842 33.1818C66.9842 33.5152 66.8776 33.7818 66.6642 33.9818C66.4509 34.1685 66.1776 34.2618 65.8442 34.2618C65.4576 34.2618 65.1709 34.1418 64.9842 33.9018C64.8109 33.6485 64.7242 33.3685 64.7242 33.0618C64.7242 32.7152 64.8109 32.4352 64.9842 32.2218C65.1576 32.0085 65.3776 31.8085 65.6442 31.6218C65.9509 31.4085 66.3442 31.2285 66.8242 31.0818C67.3176 30.9218 67.8709 30.8418 68.4842 30.8418C69.0309 30.8418 69.4976 30.9085 69.8842 31.0418C70.2709 31.1618 70.5909 31.3418 70.8442 31.5818C71.1909 31.9018 71.4176 32.2952 71.5242 32.7618C71.6309 33.2152 71.6842 33.7618 71.6842 34.4018V39.9618C71.6842 40.2952 71.7309 40.5352 71.8242 40.6818C71.9309 40.8285 72.0909 40.9018 72.3042 40.9018C72.4509 40.9018 72.5909 40.8685 72.7242 40.8018C72.8576 40.7352 73.0176 40.6285 73.2042 40.4818L73.4242 40.8218C73.1442 41.0352 72.8776 41.2152 72.6242 41.3618C72.3709 41.4952 72.0309 41.5618 71.6042 41.5618C71.2176 41.5618 70.8976 41.4952 70.6442 41.3618C70.3909 41.2285 70.1976 41.0352 70.0642 40.7818C69.9442 40.5152 69.8842 40.1818 69.8842 39.7818C69.5242 40.3818 69.0909 40.8285 68.5842 41.1218C68.0909 41.4152 67.5309 41.5618 66.9042 41.5618ZM67.6242 40.7618C68.0642 40.7618 68.4709 40.6352 68.8442 40.3818C69.2309 40.1285 69.5776 39.7485 69.8842 39.2418V35.3218C69.7242 35.5485 69.4909 35.7418 69.1842 35.9018C68.8776 36.0485 68.5442 36.2018 68.1842 36.3618C67.8242 36.5085 67.4776 36.6885 67.1442 36.9018C66.8242 37.1018 66.5576 37.3685 66.3442 37.7018C66.1309 38.0352 66.0242 38.4685 66.0242 39.0018C66.0242 39.5352 66.1642 39.9618 66.4442 40.2818C66.7376 40.6018 67.1309 40.7618 67.6242 40.7618Z" fill="#0E3B49"/>
<path d="M77.2052 30.9018V43.1818C77.2052 43.7552 77.3718 44.1352 77.7052 44.3218C78.0518 44.5218 78.5252 44.6218 79.1252 44.6218V45.0418C78.8318 45.0285 78.4252 45.0085 77.9052 44.9818C77.3852 44.9685 76.8318 44.9618 76.2452 44.9618C75.8318 44.9618 75.4185 44.9685 75.0052 44.9818C74.6052 45.0085 74.2985 45.0285 74.0852 45.0418V44.6218C74.5652 44.6218 74.9052 44.5352 75.1052 44.3618C75.3052 44.1885 75.4052 43.8618 75.4052 43.3818V33.3018C75.4052 32.7018 75.2985 32.2618 75.0852 31.9818C74.8718 31.6885 74.4718 31.5418 73.8852 31.5418V31.1218C74.3118 31.1618 74.7252 31.1818 75.1252 31.1818C75.5118 31.1818 75.8785 31.1618 76.2252 31.1218C76.5852 31.0685 76.9118 30.9952 77.2052 30.9018ZM80.4052 30.8418C81.1118 30.8418 81.7452 31.0352 82.3052 31.4218C82.8652 31.7952 83.3052 32.3485 83.6252 33.0818C83.9585 33.8152 84.1252 34.7218 84.1252 35.8018C84.1252 36.5218 84.0385 37.2352 83.8652 37.9418C83.6918 38.6352 83.4185 39.2685 83.0452 39.8418C82.6852 40.4018 82.2118 40.8552 81.6252 41.2018C81.0518 41.5352 80.3585 41.7018 79.5452 41.7018C78.9185 41.7018 78.3718 41.5552 77.9052 41.2618C77.4518 40.9685 77.1452 40.6152 76.9852 40.2018L77.1852 39.9218C77.3718 40.2952 77.6385 40.6085 77.9852 40.8618C78.3452 41.1152 78.7918 41.2418 79.3252 41.2418C80.0718 41.2418 80.6518 41.0085 81.0652 40.5418C81.4785 40.0752 81.7652 39.4552 81.9252 38.6818C82.0985 37.8952 82.1852 37.0285 82.1852 36.0818C82.1852 35.0152 82.0985 34.1418 81.9252 33.4618C81.7518 32.7818 81.4918 32.2752 81.1452 31.9418C80.7985 31.6085 80.3718 31.4418 79.8652 31.4418C79.2118 31.4418 78.6185 31.7152 78.0852 32.2618C77.5518 32.7952 77.2118 33.6085 77.0652 34.7018L76.8252 34.4218C76.9718 33.2885 77.3718 32.4085 78.0252 31.7818C78.6918 31.1552 79.4852 30.8418 80.4052 30.8418Z" fill="#0E3B49"/>
<path d="M87.8862 26.1218C88.2329 26.1218 88.5329 26.2485 88.7863 26.5018C89.0396 26.7552 89.1662 27.0552 89.1662 27.4018C89.1662 27.7485 89.0396 28.0485 88.7863 28.3018C88.5329 28.5552 88.2329 28.6818 87.8862 28.6818C87.5396 28.6818 87.2396 28.5552 86.9862 28.3018C86.7329 28.0485 86.6063 27.7485 86.6063 27.4018C86.6063 27.0552 86.7329 26.7552 86.9862 26.5018C87.2396 26.2485 87.5396 26.1218 87.8862 26.1218ZM88.9663 30.9018V39.5618C88.9663 40.1218 89.0796 40.5018 89.3063 40.7018C89.5463 40.9018 89.9396 41.0018 90.4863 41.0018V41.4218C90.2596 41.4085 89.9129 41.3952 89.4463 41.3818C88.9929 41.3552 88.5329 41.3418 88.0662 41.3418C87.6129 41.3418 87.1529 41.3552 86.6862 41.3818C86.2196 41.3952 85.8729 41.4085 85.6463 41.4218V41.0018C86.1929 41.0018 86.5796 40.9018 86.8063 40.7018C87.0463 40.5018 87.1662 40.1218 87.1662 39.5618V33.3018C87.1662 32.7018 87.0596 32.2618 86.8462 31.9818C86.6329 31.6885 86.2329 31.5418 85.6463 31.5418V31.1218C86.0729 31.1618 86.4862 31.1818 86.8862 31.1818C87.2729 31.1818 87.6396 31.1618 87.9863 31.1218C88.3463 31.0685 88.6729 30.9952 88.9663 30.9018Z" fill="#0E3B49"/>
<path d="M101.126 31.1418V31.5618C100.579 31.5618 100.186 31.6618 99.9456 31.8618C99.719 32.0618 99.6056 32.4418 99.6056 33.0018V39.5618C99.6056 40.1218 99.7056 40.5018 99.9056 40.7018C100.106 40.9018 100.446 41.0018 100.926 41.0018V41.4218C100.712 41.4085 100.392 41.3952 99.9656 41.3818C99.5523 41.3552 99.1256 41.3418 98.6856 41.3418C98.2456 41.3418 97.7923 41.3552 97.3256 41.3818C96.859 41.3952 96.5123 41.4085 96.2856 41.4218V41.0018C96.8323 41.0018 97.219 40.9018 97.4456 40.7018C97.6856 40.5018 97.8056 40.1218 97.8056 39.5618V33.0018C97.8056 32.4685 97.699 32.0952 97.4856 31.8818C97.2723 31.6685 96.899 31.5618 96.3656 31.5618C95.7656 31.5618 95.3056 31.6752 94.9856 31.9018C94.679 32.1152 94.4723 32.3952 94.3656 32.7418C94.259 33.0885 94.2056 33.4618 94.2056 33.8618C94.2056 34.7285 94.4123 35.3818 94.8256 35.8218C95.239 36.2618 95.9656 36.4952 97.0056 36.5218C97.339 36.5352 97.6723 36.5418 98.0056 36.5418C98.339 36.5418 98.6723 36.5418 99.0056 36.5418L99.0456 36.9218C98.339 36.9218 97.7323 36.9285 97.2256 36.9418C96.7323 36.9552 96.3523 36.9618 96.0856 36.9618C95.2856 36.9618 94.639 36.8818 94.1456 36.7218C93.6523 36.5485 93.2723 36.3218 93.0056 36.0418C92.7523 35.7618 92.579 35.4552 92.4856 35.1218C92.4056 34.7885 92.3656 34.4552 92.3656 34.1218C92.3656 33.5485 92.4723 33.0418 92.6856 32.6018C92.9123 32.1485 93.299 31.7952 93.8456 31.5418C94.3923 31.2752 95.1523 31.1418 96.1256 31.1418C96.499 31.1418 96.9123 31.1552 97.3656 31.1818C97.819 31.2085 98.2856 31.2218 98.7656 31.2218C99.1923 31.2218 99.6323 31.2152 100.086 31.2018C100.552 31.1752 100.899 31.1552 101.126 31.1418ZM97.1256 36.7218V36.9418C96.7923 36.9552 96.4456 36.9752 96.0856 37.0018C95.7256 37.0152 95.4123 37.1418 95.1456 37.3818C94.9323 37.5818 94.7723 37.8418 94.6656 38.1618C94.559 38.4818 94.4656 38.8285 94.3856 39.2018C94.319 39.5752 94.2123 39.9485 94.0656 40.3218C93.919 40.7218 93.7056 41.0152 93.4256 41.2018C93.159 41.3885 92.6856 41.4818 92.0056 41.4818C91.8323 41.4818 91.6523 41.4752 91.4656 41.4618C91.279 41.4485 91.0723 41.4352 90.8456 41.4218V41.0018C91.2323 40.9618 91.519 40.9085 91.7056 40.8418C91.9056 40.7618 92.0523 40.6485 92.1456 40.5018C92.239 40.3418 92.3323 40.1352 92.4256 39.8818C92.639 39.2952 92.8123 38.8418 92.9456 38.5218C93.079 38.2018 93.219 37.9552 93.3656 37.7818C93.5123 37.5952 93.7056 37.4352 93.9456 37.3018C94.1056 37.2085 94.2856 37.1285 94.4856 37.0618C94.699 36.9818 94.9323 36.9152 95.1856 36.8618C95.4523 36.8085 95.7456 36.7685 96.0656 36.7418C96.399 36.7152 96.7523 36.7085 97.1256 36.7218Z" fill="#0E3B49"/>
<path d="M118.868 27.2618V27.6618C118.415 27.6752 118.068 27.7285 117.828 27.8218C117.602 27.9018 117.448 28.0618 117.368 28.3018C117.288 28.5285 117.248 28.8885 117.248 29.3818V39.3018C117.248 39.7818 117.288 40.1418 117.368 40.3818C117.448 40.6218 117.602 40.7818 117.828 40.8618C118.068 40.9418 118.415 40.9952 118.868 41.0218V41.4218C118.588 41.3952 118.222 41.3818 117.768 41.3818C117.315 41.3685 116.828 41.3618 116.308 41.3618C115.855 41.3618 115.395 41.3685 114.928 41.3818C114.462 41.3818 114.075 41.3952 113.768 41.4218V41.0218C114.222 40.9952 114.562 40.9418 114.788 40.8618C115.028 40.7818 115.188 40.6218 115.268 40.3818C115.348 40.1418 115.388 39.7818 115.388 39.3018V29.3818C115.388 28.6885 115.295 28.2285 115.108 28.0018C114.922 27.7752 114.522 27.6618 113.908 27.6618C112.695 27.6618 111.835 27.9485 111.328 28.5218C110.835 29.0818 110.588 29.8552 110.588 30.8418C110.588 31.4952 110.675 32.0885 110.848 32.6218C111.035 33.1418 111.375 33.5552 111.868 33.8618C112.375 34.1552 113.102 34.3018 114.048 34.3018H115.768C115.768 34.3018 115.768 34.3685 115.768 34.5018C115.768 34.6352 115.768 34.7018 115.768 34.7018H113.848C112.808 34.7018 111.948 34.5818 111.268 34.3418C110.588 34.1018 110.048 33.7885 109.648 33.4018C109.262 33.0152 108.988 32.5885 108.828 32.1218C108.668 31.6552 108.588 31.2018 108.588 30.7618C108.588 30.1085 108.762 29.5218 109.108 29.0018C109.468 28.4685 110.008 28.0485 110.728 27.7418C111.448 27.4352 112.342 27.2818 113.408 27.2818C113.648 27.2818 114.055 27.2885 114.628 27.3018C115.202 27.3152 115.802 27.3218 116.428 27.3218C116.868 27.3218 117.315 27.3152 117.768 27.3018C118.222 27.2885 118.588 27.2752 118.868 27.2618ZM115.588 34.3618L115.548 34.7018H113.388C112.868 34.7018 112.468 34.8218 112.188 35.0618C111.908 35.3018 111.695 35.6352 111.548 36.0618C111.402 36.4752 111.262 36.9685 111.128 37.5418L110.688 39.5418C110.502 40.3952 110.222 40.9685 109.848 41.2618C109.488 41.5552 109.055 41.7018 108.548 41.7018C108.015 41.7018 107.595 41.5952 107.288 41.3818C106.982 41.1552 106.688 40.8352 106.408 40.4218L106.708 40.2018C106.895 40.4285 107.062 40.6085 107.208 40.7418C107.355 40.8752 107.542 40.9485 107.768 40.9618C108.062 40.9752 108.268 40.8552 108.388 40.6018C108.522 40.3352 108.655 39.9085 108.788 39.3218L109.248 37.2818C109.435 36.4552 109.735 35.8485 110.148 35.4618C110.575 35.0618 111.235 34.7885 112.128 34.6418C112.382 34.6018 112.635 34.5685 112.888 34.5418C113.142 34.5152 113.475 34.4885 113.888 34.4618C114.315 34.4218 114.882 34.3885 115.588 34.3618Z" fill="#0E3B49"/>
<path d="M131.355 31.1418V31.5618C130.808 31.5618 130.415 31.6618 130.175 31.8618C129.948 32.0618 129.835 32.4418 129.835 33.0018V39.5618C129.835 40.1218 129.948 40.5018 130.175 40.7018C130.415 40.9018 130.808 41.0018 131.355 41.0018V41.4218C131.128 41.4085 130.781 41.3952 130.315 41.3818C129.848 41.3552 129.395 41.3418 128.955 41.3418C128.515 41.3418 128.081 41.3552 127.655 41.3818C127.241 41.3952 126.928 41.4085 126.715 41.4218V41.0018C127.195 41.0018 127.535 40.9018 127.735 40.7018C127.935 40.5018 128.035 40.1218 128.035 39.5618V33.0018C128.035 32.4418 127.935 32.0618 127.735 31.8618C127.535 31.6618 127.195 31.5618 126.715 31.5618V31.1418C126.928 31.1552 127.241 31.1752 127.655 31.2018C128.081 31.2152 128.515 31.2218 128.955 31.2218C129.395 31.2218 129.848 31.2152 130.315 31.2018C130.781 31.1752 131.128 31.1552 131.355 31.1418ZM124.935 31.1418V31.5618C124.455 31.5618 124.115 31.6618 123.915 31.8618C123.715 32.0618 123.615 32.4418 123.615 33.0018V39.5618C123.615 40.1218 123.715 40.5018 123.915 40.7018C124.115 40.9018 124.455 41.0018 124.935 41.0018V41.4218C124.721 41.4085 124.401 41.3952 123.975 41.3818C123.561 41.3552 123.135 41.3418 122.695 41.3418C122.255 41.3418 121.801 41.3552 121.335 41.3818C120.868 41.3952 120.521 41.4085 120.295 41.4218V41.0018C120.841 41.0018 121.228 40.9018 121.455 40.7018C121.695 40.5018 121.815 40.1218 121.815 39.5618V33.0018C121.815 32.4418 121.695 32.0618 121.455 31.8618C121.228 31.6618 120.841 31.5618 120.295 31.5618V31.1418C120.521 31.1552 120.868 31.1752 121.335 31.2018C121.801 31.2152 122.255 31.2218 122.695 31.2218C123.135 31.2218 123.561 31.2152 123.975 31.2018C124.401 31.1752 124.721 31.1552 124.935 31.1418ZM128.595 35.9218V36.3218H122.955V35.9218H128.595Z" fill="#0E3B49"/>
<path d="M142.661 31.1418V31.5618C142.115 31.5618 141.721 31.6618 141.481 31.8618C141.255 32.0618 141.141 32.4418 141.141 33.0018V39.5618C141.141 40.1218 141.255 40.5018 141.481 40.7018C141.721 40.9018 142.115 41.0018 142.661 41.0018V41.4218C142.435 41.4085 142.101 41.3952 141.661 41.3818C141.221 41.3552 140.728 41.3418 140.181 41.3418C139.648 41.3418 139.095 41.3552 138.521 41.3818C137.961 41.3952 137.528 41.4085 137.221 41.4218V41.0018C137.888 41.0018 138.408 40.8952 138.781 40.6818C139.155 40.4552 139.341 40.0152 139.341 39.3618V33.0018C139.341 32.4418 139.241 32.0618 139.041 31.8618C138.841 31.6618 138.501 31.5618 138.021 31.5618V31.1418C138.235 31.1552 138.548 31.1752 138.961 31.2018C139.388 31.2152 139.821 31.2218 140.261 31.2218C140.701 31.2218 141.155 31.2152 141.621 31.2018C142.088 31.1752 142.435 31.1552 142.661 31.1418ZM136.881 31.1418V31.5618C136.401 31.5618 136.061 31.6618 135.861 31.8618C135.661 32.0618 135.561 32.4418 135.561 33.0018V34.5618C135.561 35.0285 135.588 35.4352 135.641 35.7818C135.708 36.1285 135.861 36.3952 136.101 36.5818C136.341 36.7685 136.728 36.8618 137.261 36.8618C137.688 36.8618 138.095 36.8085 138.481 36.7018C138.868 36.5818 139.188 36.4285 139.441 36.2418V36.6618C139.175 36.8485 138.761 37.0352 138.201 37.2218C137.655 37.4085 137.088 37.5018 136.501 37.5018C136.035 37.5018 135.621 37.4352 135.261 37.3018C134.915 37.1552 134.635 36.9685 134.421 36.7418C134.168 36.4752 133.995 36.1285 133.901 35.7018C133.808 35.2752 133.761 34.7485 133.761 34.1218V33.0018C133.761 32.4418 133.641 32.0618 133.401 31.8618C133.175 31.6618 132.788 31.5618 132.241 31.5618V31.1418C132.468 31.1552 132.815 31.1752 133.281 31.2018C133.748 31.2152 134.201 31.2218 134.641 31.2218C135.081 31.2218 135.508 31.2152 135.921 31.2018C136.348 31.1752 136.668 31.1552 136.881 31.1418Z" fill="#0E3B49"/>
<path d="M153.13 31.1218V31.5218C152.877 31.5485 152.643 31.6618 152.43 31.8618C152.217 32.0618 152.017 32.4152 151.83 32.9218L148.55 41.5218H148.21L144.53 32.6618C144.277 32.1418 144.023 31.8285 143.77 31.7218C143.53 31.6018 143.33 31.5418 143.17 31.5418V31.1218C143.463 31.1618 143.77 31.1952 144.09 31.2218C144.41 31.2352 144.757 31.2418 145.13 31.2418C145.543 31.2418 145.977 31.2285 146.43 31.2018C146.897 31.1752 147.33 31.1485 147.73 31.1218V31.5418C147.397 31.5418 147.097 31.5685 146.83 31.6218C146.577 31.6618 146.417 31.8018 146.35 32.0418C146.283 32.2685 146.363 32.6618 146.59 33.2218L149.05 39.3218L148.93 39.3618L151.21 33.4018C151.383 32.9618 151.45 32.6152 151.41 32.3618C151.383 32.0952 151.25 31.8952 151.01 31.7618C150.77 31.6285 150.41 31.5485 149.93 31.5218V31.1218C150.17 31.1352 150.377 31.1485 150.55 31.1618C150.723 31.1618 150.89 31.1685 151.05 31.1818C151.223 31.1818 151.41 31.1818 151.61 31.1818C151.917 31.1818 152.19 31.1752 152.43 31.1618C152.683 31.1485 152.917 31.1352 153.13 31.1218ZM148.55 41.5218L147.87 43.2618C147.737 43.5952 147.597 43.8752 147.45 44.1018C147.317 44.3285 147.17 44.5152 147.01 44.6618C146.797 44.8618 146.543 44.9952 146.25 45.0618C145.957 45.1418 145.69 45.1818 145.45 45.1818C145.197 45.1818 144.963 45.1352 144.75 45.0418C144.55 44.9485 144.39 44.8085 144.27 44.6218C144.15 44.4485 144.09 44.2352 144.09 43.9818C144.09 43.6618 144.183 43.4018 144.37 43.2018C144.557 43.0152 144.817 42.9218 145.15 42.9218C145.43 42.9218 145.67 43.0018 145.87 43.1618C146.07 43.3218 146.17 43.5552 146.17 43.8618C146.17 44.0885 146.117 44.2752 146.01 44.4218C145.903 44.5685 145.777 44.6818 145.63 44.7618C145.657 44.7752 145.677 44.7818 145.69 44.7818C145.717 44.7818 145.737 44.7818 145.75 44.7818C146.11 44.7818 146.43 44.6552 146.71 44.4018C146.99 44.1618 147.237 43.7685 147.45 43.2218L148.17 41.3618L148.55 41.5218Z" fill="#0E3B49"/>
<path d="M162.708 30.8418C163.175 30.8418 163.501 30.9552 163.688 31.1818C163.888 31.4085 163.988 31.6618 163.988 31.9418C163.988 32.2352 163.895 32.4885 163.708 32.7018C163.521 32.9018 163.261 33.0018 162.928 33.0018C162.688 33.0018 162.481 32.9485 162.308 32.8418C162.135 32.7352 162.001 32.5885 161.908 32.4018C161.815 32.2018 161.768 31.9752 161.768 31.7218C161.768 31.6952 161.768 31.6685 161.768 31.6418C161.768 31.6152 161.768 31.5952 161.768 31.5818C161.621 31.6485 161.488 31.7685 161.368 31.9418C161.261 32.1152 161.148 32.3485 161.028 32.6418C160.908 32.9352 160.768 33.2952 160.608 33.7218C160.475 34.0818 160.321 34.4285 160.148 34.7618C159.975 35.0952 159.735 35.3752 159.428 35.6018C159.121 35.8285 158.701 35.9752 158.168 36.0418L158.348 35.9018C159.148 35.8752 159.848 35.9618 160.448 36.1618C161.061 36.3618 161.541 36.7352 161.888 37.2818C162.115 37.6285 162.301 38.0552 162.448 38.5618C162.608 39.0685 162.775 39.5152 162.948 39.9018C163.095 40.2352 163.261 40.4952 163.448 40.6818C163.648 40.8552 163.955 40.9618 164.368 41.0018V41.4218C164.155 41.4618 163.941 41.4952 163.728 41.5218C163.515 41.5485 163.315 41.5618 163.128 41.5618C162.528 41.5618 162.088 41.4218 161.808 41.1418C161.528 40.8485 161.315 40.4552 161.168 39.9618C161.101 39.7352 161.021 39.4618 160.928 39.1418C160.835 38.8085 160.721 38.4752 160.588 38.1418C160.455 37.7952 160.295 37.4952 160.108 37.2418C159.815 36.8285 159.435 36.5618 158.968 36.4418C158.501 36.3085 157.895 36.2552 157.148 36.2818V35.9418C157.881 35.9018 158.448 35.7818 158.848 35.5818C159.248 35.3685 159.555 35.0752 159.768 34.7018C159.981 34.3285 160.175 33.8885 160.348 33.3818C160.481 33.0085 160.628 32.6285 160.788 32.2418C160.948 31.8418 161.175 31.5085 161.468 31.2418C161.775 30.9752 162.188 30.8418 162.708 30.8418ZM158.548 31.1418V31.5618C158.068 31.5618 157.728 31.6618 157.528 31.8618C157.328 32.0618 157.228 32.4418 157.228 33.0018V39.5618C157.228 40.1218 157.328 40.5018 157.528 40.7018C157.728 40.9018 158.068 41.0018 158.548 41.0018V41.4218C158.335 41.4085 158.015 41.3952 157.588 41.3818C157.161 41.3552 156.728 41.3418 156.288 41.3418C155.848 41.3418 155.395 41.3552 154.928 41.3818C154.475 41.3952 154.135 41.4085 153.908 41.4218V41.0018C154.455 41.0018 154.841 40.9018 155.068 40.7018C155.308 40.5018 155.428 40.1218 155.428 39.5618V33.0018C155.428 32.4418 155.308 32.0618 155.068 31.8618C154.841 31.6618 154.455 31.5618 153.908 31.5618V31.1418C154.135 31.1552 154.475 31.1752 154.928 31.2018C155.395 31.2152 155.848 31.2218 156.288 31.2218C156.728 31.2218 157.161 31.2152 157.588 31.2018C158.015 31.1752 158.335 31.1552 158.548 31.1418Z" fill="#0E3B49"/>
<rect x="1" y="5" width="40" height="40" rx="20" fill="url(#paint0_linear_276_642)"/>
<g clip-path="url(#clip0_276_642)">
<path d="M17.2078 14.2535H24.7922C25.1201 14.2535 25.4622 14.4242 25.7046 14.6232V14.6659C25.947 14.8791 26.0753 15.2062 26.0753 15.5758C26.0753 15.9029 25.947 16.2441 25.7046 16.4858C25.4622 16.7275 25.1201 16.8555 24.7922 16.8555H23.0102V25.3437C23.9653 25.3864 26.3747 25.2158 26.3747 22.6992V16.8981C26.4174 16.6849 26.5885 14.6659 29.0691 14.6659H31.9774C32.5192 14.6659 32.7188 14.7512 32.7188 15.0782C32.7188 15.4052 32.5477 15.4479 32.3053 15.5332C32.177 15.5332 32.063 15.5758 31.9347 15.6611C31.564 15.7891 31.065 16.0735 30.7371 16.4858C30.5233 16.8128 30.3664 17.1825 30.3664 17.6801V23.5949C30.3664 24.0072 30.0813 28.3864 24.6496 28.3864H23.0102V34.5856H24.7922C25.1201 34.5856 25.4622 34.7562 25.7046 34.9979C25.947 35.2112 26.0753 35.5382 26.0753 35.9079C26.0753 36.2349 25.947 36.5761 25.7046 36.8178C25.4622 37.0595 25.1201 37.1875 24.7922 37.1875H17.2078C16.8371 37.1875 16.5092 37.0595 16.2954 36.8178H16.2526C16.0388 36.5761 15.882 36.2349 15.882 35.9079C15.882 35.5382 16.053 35.2112 16.2954 34.9979V34.9552C16.5092 34.742 16.8371 34.5856 17.2078 34.5856H18.9471V28.4007H17.3219C11.8902 28.4007 11.6478 24.0214 11.605 23.6091V17.6801C11.605 17.1825 11.434 16.8128 11.2344 16.4858C10.9065 16.0735 10.4075 15.7749 10.0796 15.6611C9.9513 15.5758 9.78022 15.5332 9.69469 15.5332C9.45233 15.4479 9.28125 15.4052 9.28125 15.0782C9.28125 14.7512 9.4951 14.6659 9.97981 14.6659H12.9309C15.383 14.6659 15.5826 16.6991 15.5826 16.8981V22.6849C15.5826 25.2016 17.9919 25.3722 18.9471 25.3295V16.8555H17.2078C16.8371 16.8555 16.5092 16.7275 16.2954 16.4858H16.2526C16.0388 16.2441 15.882 15.9029 15.882 15.5758C15.882 15.2062 16.053 14.8791 16.2954 14.6232C16.495 14.4242 16.8229 14.2535 17.2078 14.2535ZM20.7719 20.2536C20.7719 20.0119 20.943 19.8413 21.1853 19.8413C21.3992 19.8413 21.5988 20.0119 21.5988 20.2536V20.9503C21.5988 21.192 21.3849 21.3626 21.1853 21.3626C20.943 21.3626 20.7719 21.192 20.7719 20.9503V20.2536ZM20.7719 22.7276C20.7719 22.5143 20.943 22.3153 21.1853 22.3153C21.3992 22.3153 21.5988 22.5285 21.5988 22.7276V29.5097C21.5988 29.7514 21.3849 29.922 21.1853 29.922C20.943 29.922 20.7719 29.7514 20.7719 29.5097V22.7276ZM23.0102 26.1684V27.576H24.6211C29.2259 27.576 29.5111 23.9788 29.5111 23.5665V17.6801C29.5111 16.9834 29.7534 16.4431 30.0528 15.9882C30.2239 15.8175 30.3807 15.6611 30.5518 15.4905H29.0549C27.4011 15.4905 27.23 16.7275 27.1873 16.9408V22.6849C27.2015 25.9551 24.2077 26.211 23.0102 26.1684ZM18.9471 27.576V26.1684C17.7923 26.211 14.7557 25.9551 14.7557 22.6992V16.9408C14.7557 16.7275 14.5846 15.4905 12.9309 15.4905H11.3912C11.605 15.6611 11.7619 15.8175 11.8902 15.9882C12.2181 16.4431 12.4319 16.9834 12.4319 17.6801V23.5522C12.4747 23.9646 12.717 27.5618 17.3219 27.5618H18.9471V27.576ZM21.1853 35.4244C20.943 35.4244 20.7719 35.2538 20.7719 35.0121C20.7719 34.7988 20.943 34.5998 21.1853 34.5998H22.1833V27.9883V16.4431C22.1833 16.2299 22.3971 16.0308 22.5967 16.0308H24.7922C24.9205 16.0308 25.0346 15.9882 25.1201 15.9029C25.2056 15.8175 25.2484 15.6896 25.2484 15.5758C25.2484 15.4052 25.2056 15.3341 25.1201 15.2488V15.2062C25.0346 15.1209 24.9063 15.0782 24.7922 15.0782H17.2078C17.0795 15.0782 16.9654 15.1209 16.8799 15.2062C16.7944 15.3341 16.7088 15.4194 16.7088 15.5758C16.7088 15.7038 16.7944 15.8175 16.8799 15.9029C16.9654 15.9882 17.0938 16.0308 17.2078 16.0308H19.3605H20.8147C21.0285 16.0308 21.2281 16.2441 21.2281 16.4431C21.2281 16.6849 21.0143 16.8555 20.8147 16.8555H19.774V27.9741V35.0121C19.774 35.2538 19.6029 35.4244 19.3605 35.4244H17.2078C17.0795 35.4244 16.9654 35.5098 16.8799 35.5951C16.7944 35.6804 16.7088 35.8083 16.7088 35.9221C16.7088 36.05 16.7944 36.1638 16.8799 36.2491C16.9654 36.3344 17.0938 36.3771 17.2078 36.3771H24.7922C24.9205 36.3771 25.0346 36.3344 25.1201 36.2491C25.2056 36.1638 25.2484 36.0358 25.2484 35.9221C25.2484 35.7941 25.2056 35.6804 25.1201 35.5951C25.0346 35.5098 24.9063 35.4244 24.7922 35.4244H22.6395H22.5967H21.1853Z" fill="#FCFDFE"/>
</g>
<defs>
<linearGradient id="paint0_linear_276_642" x1="21" y1="5" x2="21" y2="87.6722" gradientUnits="userSpaceOnUse">
<stop stop-color="#08B6C4"/>
<stop offset="1" stop-color="#134F61"/>
</linearGradient>
<clipPath id="clip0_276_642">
<rect width="23.4375" height="23.4375" fill="white" transform="translate(9.28125 13.75)"/>
</clipPath>
</defs>
</svg>
