<!-- Generated by IcoMoon.io -->
<svg version="1.1" xmlns="http://www.w3.org/2000/svg" width="32" height="32" viewBox="0 0 32 32">
<title>menu-icon</title>
<path d="M24.533 11.259h-9.6c-0.356 0-0.593-0.237-0.593-0.593s0.237-0.593 0.593-0.593h9.6c0.356 0 0.593 0.237 0.593 0.593s-0.237 0.593-0.593 0.593zM10.667 11.259h-3.2c-0.356 0-0.593-0.237-0.593-0.593s0.237-0.593 0.593-0.593h3.2c0.356 0 0.593 0.237 0.593 0.593s-0.237 0.593-0.593 0.593z"></path>
<path d="M24.533 21.926h-3.2c-0.356 0-0.593-0.237-0.593-0.593s0.237-0.593 0.593-0.593h3.2c0.356 0 0.593 0.237 0.593 0.593s-0.237 0.593-0.593 0.593zM17.067 21.926h-9.6c-0.356 0-0.593-0.237-0.593-0.593s0.237-0.593 0.593-0.593h9.6c0.356 0 0.593 0.237 0.593 0.593s-0.237 0.593-0.593 0.593z"></path>
<path d="M24.533 16.593h-17.067c-0.356 0-0.593-0.237-0.593-0.593s0.237-0.593 0.593-0.593h17.067c0.356 0 0.593 0.237 0.593 0.593s-0.237 0.593-0.593 0.593z"></path>
</svg>
