<svg aria-hidden="true" style="position: absolute; width: 0; height: 0; overflow: hidden;" version="1.1" xmlns="http://www.w3.org/2000/svg" xmlns:xlink="http://www.w3.org/1999/xlink">
<defs>
<symbol id="icon-menu-icon" viewBox="0 0 32 32">
<path d="M24.533 11.259h-9.6c-0.356 0-0.593-0.237-0.593-0.593s0.237-0.593 0.593-0.593h9.6c0.356 0 0.593 0.237 0.593 0.593s-0.237 0.593-0.593 0.593zM10.667 11.259h-3.2c-0.356 0-0.593-0.237-0.593-0.593s0.237-0.593 0.593-0.593h3.2c0.356 0 0.593 0.237 0.593 0.593s-0.237 0.593-0.593 0.593z"></path>
<path d="M24.533 21.926h-3.2c-0.356 0-0.593-0.237-0.593-0.593s0.237-0.593 0.593-0.593h3.2c0.356 0 0.593 0.237 0.593 0.593s-0.237 0.593-0.593 0.593zM17.067 21.926h-9.6c-0.356 0-0.593-0.237-0.593-0.593s0.237-0.593 0.593-0.593h9.6c0.356 0 0.593 0.237 0.593 0.593s-0.237 0.593-0.593 0.593z"></path>
<path d="M24.533 16.593h-17.067c-0.356 0-0.593-0.237-0.593-0.593s0.237-0.593 0.593-0.593h17.067c0.356 0 0.593 0.237 0.593 0.593s-0.237 0.593-0.593 0.593z"></path>
</symbol>
<symbol id="icon-close-icon" viewBox="0 0 32 32">
<path fill="#cafaee" style="fill: var(--color1, #cafaee)" d="M18.667 19.259c-0.178 0-0.296-0.059-0.415-0.178l-2.252-2.252-2.252 2.252c-0.237 0.237-0.593 0.237-0.83 0s-0.237-0.593 0-0.83l2.252-2.252-2.252-2.252c-0.237-0.237-0.237-0.593 0-0.83s0.593-0.237 0.83 0l2.252 2.252 2.252-2.252c0.237-0.237 0.593-0.237 0.83 0s0.237 0.593 0 0.83l-2.252 2.252 2.252 2.252c0.237 0.237 0.237 0.593 0 0.83-0.119 0.119-0.237 0.178-0.415 0.178z"></path>
<path fill="#cafaee" style="fill: var(--color1, #cafaee)" d="M16 27.259c-6.222 0-11.259-5.037-11.259-11.259 0-1.956 0.533-3.911 1.481-5.63 0.178-0.296 0.533-0.356 0.83-0.237 0.296 0.178 0.356 0.533 0.237 0.83-0.889 1.541-1.363 3.259-1.363 5.037 0 5.57 4.504 10.074 10.074 10.074s10.074-4.504 10.074-10.074-4.504-10.074-10.074-10.074c-1.778 0-3.496 0.474-5.037 1.363-0.296 0.178-0.652 0.059-0.83-0.237s-0.059-0.652 0.237-0.83c1.719-0.948 3.674-1.481 5.63-1.481 6.222 0 11.259 5.037 11.259 11.259s-5.037 11.259-11.259 11.259z"></path>
</symbol>
<symbol id="icon-envelop-icon" viewBox="0 0 32 32">
<path fill="#cafaee" style="fill: var(--color1, #cafaee)" d="M18.133 25.156h-4.267c-4.178 0-6.311 0-7.733-1.422s-1.422-3.556-1.422-7.733 0-6.311 1.422-7.733 3.556-1.422 7.733-1.422h4.267c4.178 0 6.311 0 7.733 1.422 0.8 0.8 1.156 1.778 1.333 3.467 0 0.356-0.267 0.711-0.622 0.711s-0.711-0.267-0.711-0.622c-0.089-1.333-0.444-2.044-0.978-2.578-1.067-1.067-3.022-1.067-6.844-1.067h-4.267c-3.822 0-5.778 0-6.844 1.067s-1.067 3.022-1.067 6.844c0 3.822 0 5.778 1.067 6.844s3.022 1.067 6.844 1.067h4.267c3.822 0 5.778 0 6.844-1.067s1.067-3.022 1.067-6.844c0-0.356 0.267-0.711 0.711-0.711s0.711 0.267 0.711 0.711c0 4.178 0 6.311-1.422 7.733-1.511 1.333-3.644 1.333-7.822 1.333z"></path>
<path fill="#cafaee" style="fill: var(--color1, #cafaee)" d="M16 16.8c-0.8 0-1.511-0.267-2.489-0.978-0.267-0.178-0.356-0.622-0.178-0.889s0.622-0.356 0.889-0.178c0.711 0.533 1.244 0.711 1.778 0.711 0.889 0 1.867-0.8 3.644-2.311l2.311-1.956c0.267-0.267 0.711-0.178 0.978 0.089s0.178 0.711-0.089 0.978l-2.311 1.956c-2.044 1.689-3.111 2.578-4.533 2.578zM11.556 14.044c-0.178 0-0.267-0.089-0.444-0.178l-1.956-1.6c-0.267-0.267-0.267-0.711-0.089-0.978 0.267-0.267 0.622-0.356 0.978-0.089l1.956 1.6c0.267 0.267 0.356 0.622 0.089 0.978-0.178 0.178-0.356 0.267-0.533 0.267z"></path>
</symbol>
<symbol id="icon-clock-icon" viewBox="0 0 32 32">
<path fill="#cafaee" style="fill: var(--color1, #cafaee)" d="M18.667 19.378c-0.178 0-0.356-0.089-0.444-0.178l-2.667-2.667c-0.089-0.089-0.178-0.267-0.178-0.444v-4.267c0-0.356 0.267-0.711 0.711-0.711s0.711 0.267 0.711 0.711v4l2.489 2.489c0.267 0.267 0.267 0.711 0 0.978-0.267 0-0.444 0.089-0.622 0.089z"></path>
<path fill="#cafaee" style="fill: var(--color1, #cafaee)" d="M16 27.378c-6.222 0-11.378-5.156-11.378-11.378 0-1.956 0.533-3.911 1.511-5.689 0.178-0.356 0.622-0.444 0.889-0.267 0.356 0.178 0.444 0.622 0.267 0.889-0.889 1.511-1.333 3.2-1.333 4.978 0 5.511 4.444 9.956 9.956 9.956s9.956-4.444 9.956-9.956-4.356-9.867-9.867-9.867c-1.778 0-3.467 0.444-4.978 1.333-0.356 0.178-0.711 0.089-0.889-0.267s-0.089-0.711 0.267-0.889c1.689-0.978 3.644-1.511 5.689-1.511 6.222 0 11.378 5.067 11.378 11.378s-5.244 11.289-11.467 11.289z"></path>
</symbol>
<symbol id="icon-form-icon" viewBox="0 0 32 32">
<path fill="#079fac" style="fill: var(--color2, #079fac)" d="M14.781 26.133v0zM15.086 25.676v0zM12.648 25.676v0zM12.952 26.133v0zM4.762 16.838c0 0.305 0.267 0.571 0.571 0.571s0.571-0.267 0.571-0.571h-1.143zM6.171 21.257c-0.114-0.305-0.457-0.419-0.762-0.305s-0.419 0.457-0.305 0.762l1.067-0.457zM9.905 24.076v0zM7.962 23.771v0zM22.057 21.486v0zM17.829 24.076v0zM19.771 23.771v0zM7.352 10.248v0zM5.981 11.619v0zM11.657 24.343v0zM19.086 10.362c0.305 0.076 0.61-0.152 0.686-0.457s-0.152-0.61-0.457-0.686l-0.229 1.143zM22.781 12.686c-0.076-0.305-0.381-0.495-0.686-0.457-0.305 0.076-0.495 0.381-0.457 0.686l1.143-0.229zM15.276 26.438l0.267-0.457-0.99-0.571-0.267 0.457 0.99 0.571zM12.152 25.981l0.267 0.457 0.99-0.571-0.267-0.457-0.99 0.571zM14.286 25.867c-0.19 0.305-0.686 0.305-0.876 0l-0.99 0.571c0.648 1.067 2.21 1.067 2.819 0l-0.952-0.571zM12.571 10.171h2.552v-1.143h-2.552v1.143zM21.829 16.838v0.838h1.143v-0.838h-1.143zM9.943 23.505c-0.838-0.038-1.333-0.114-1.752-0.267l-0.419 1.067c0.61 0.229 1.257 0.343 2.133 0.343l0.038-1.143zM5.143 21.676c0.495 1.181 1.448 2.133 2.629 2.629l0.419-1.067c-0.914-0.381-1.638-1.105-1.981-1.981l-1.067 0.419zM21.829 17.714c0 0.99 0 1.714-0.038 2.286s-0.114 0.952-0.229 1.257l1.067 0.419c0.19-0.457 0.267-0.99 0.343-1.6 0.038-0.61 0.038-1.371 0.038-2.362h-1.181zM17.829 24.648c0.876-0.038 1.562-0.114 2.133-0.343l-0.419-1.067c-0.381 0.152-0.876 0.229-1.752 0.267l0.038 1.143zM21.562 21.257c-0.381 0.914-1.105 1.638-1.981 1.981l0.419 1.067c1.181-0.495 2.133-1.448 2.629-2.629l-1.067-0.419zM12.571 9.029c-1.371 0-2.476 0-3.314 0.076-0.876 0.076-1.562 0.267-2.171 0.648l0.61 0.99c0.419-0.267 0.914-0.381 1.714-0.457s1.79-0.076 3.2-0.076v-1.181zM5.905 16.838c0-1.41 0-2.438 0.076-3.2 0.076-0.8 0.229-1.295 0.457-1.714l-0.99-0.61c-0.381 0.61-0.533 1.333-0.648 2.171-0.076 0.876-0.076 1.943-0.076 3.314h1.181zM7.086 9.752c-0.648 0.381-1.181 0.952-1.6 1.6l0.99 0.61c0.305-0.495 0.724-0.914 1.219-1.219l-0.61-0.99zM13.143 25.371c-0.229-0.381-0.381-0.686-0.571-0.914-0.19-0.267-0.381-0.457-0.648-0.61l-0.571 0.99c0.076 0.038 0.19 0.114 0.305 0.305 0.152 0.19 0.305 0.457 0.495 0.838l0.99-0.61zM9.905 24.648c0.457 0 0.8 0.038 1.029 0.038 0.229 0.038 0.343 0.076 0.419 0.114l0.571-0.99c-0.267-0.152-0.571-0.229-0.876-0.267s-0.686-0.038-1.143-0.076v1.181zM15.581 25.981c0.229-0.381 0.381-0.648 0.495-0.838s0.229-0.267 0.305-0.305l-0.571-0.99c-0.267 0.152-0.457 0.381-0.648 0.61s-0.343 0.533-0.571 0.914l0.99 0.61zM17.79 23.505c-0.457 0-0.838 0.038-1.143 0.076s-0.61 0.114-0.876 0.267l0.571 0.99c0.076-0.038 0.19-0.076 0.419-0.114s0.571-0.038 1.029-0.038v-1.181zM15.162 10.171c1.905 0 3.086 0 3.924 0.19l0.229-1.105c-0.99-0.19-2.324-0.19-4.152-0.19v1.105zM22.971 16.838c0-1.867 0-3.162-0.19-4.152l-1.105 0.229c0.19 0.838 0.19 2.019 0.19 3.924h1.105z"></path>
<path fill="#079fac" style="fill: var(--color2, #079fac)" d="M22.4 19.505c-0.305 0-0.571-0.229-0.571-0.533s0.229-0.571 0.533-0.571c0.8-0.038 1.219-0.076 1.6-0.229 0.838-0.343 1.524-1.029 1.867-1.867 0.267-0.648 0.267-1.524 0.267-3.314v-0.8c0-1.562 0-2.705-0.152-3.505-0.038-0.305 0.152-0.61 0.457-0.648s0.61 0.152 0.648 0.457c0.152 0.876 0.152 2.019 0.152 3.695v0.762c0 1.943 0 2.895-0.343 3.733-0.457 1.143-1.333 2.019-2.476 2.476-0.533 0.229-1.181 0.305-1.981 0.343 0 0 0 0 0 0zM10.705 10.171c0 0-0.038 0 0 0-0.343 0-0.571-0.305-0.571-0.61 0.076-1.219 0.267-1.981 0.648-2.629 0.381-0.61 0.914-1.143 1.524-1.524 1.105-0.686 2.476-0.686 5.181-0.686h2.4c1.676 0 2.819 0 3.695 0.152 0.305 0.038 0.533 0.343 0.457 0.648-0.038 0.305-0.343 0.533-0.648 0.457-0.8-0.152-1.943-0.152-3.505-0.152h-2.4c-2.514 0-3.771 0-4.61 0.495-0.457 0.267-0.838 0.686-1.143 1.143-0.267 0.457-0.419 1.067-0.457 2.095-0.038 0.381-0.267 0.61-0.571 0.61z"></path>
<path fill="#079fac" style="fill: var(--color2, #079fac)" d="M11.2 17.067c0 0.571-0.495 1.067-1.067 1.067s-1.067-0.495-1.067-1.067c0-0.571 0.495-1.067 1.067-1.067s1.067 0.495 1.067 1.067z"></path>
<path fill="#079fac" style="fill: var(--color2, #079fac)" d="M14.933 17.067c0 0.571-0.495 1.067-1.067 1.067s-1.067-0.495-1.067-1.067c0-0.571 0.495-1.067 1.067-1.067s1.067 0.495 1.067 1.067z"></path>
<path fill="#079fac" style="fill: var(--color2, #079fac)" d="M18.667 17.067c0 0.571-0.495 1.067-1.067 1.067s-1.067-0.495-1.067-1.067c0-0.571 0.495-1.067 1.067-1.067s1.067 0.495 1.067 1.067z"></path>
</symbol>
<symbol id="icon-arrowUp-icon" viewBox="0 0 32 32">
<path fill="#079fac" style="fill: var(--color2, #079fac)" d="M16 31.9c-0.6 0-1-0.4-1-1v-4.7c0-0.6 0.4-1 1-1s1 0.4 1 1v4.7c0 0.6-0.4 1-1 1zM16 21.7c-0.6 0-1-0.4-1-1v-17.2l-9.5 9.5c-0.4 0.4-1 0.4-1.4 0s-0.4-1 0-1.4l11.2-11.2c0 0 0 0 0 0s0 0 0.1-0.1v0c0 0 0 0 0 0s0 0 0 0 0 0 0 0c0.1-0.1 0.2-0.1 0.2-0.1 0.1 0 0.2-0.1 0.4-0.1v0c0 0 0 0 0 0s0 0 0 0 0 0 0 0c0.1 0 0.2 0 0.3 0.1 0.1 0 0.2 0.1 0.3 0.2v0c0 0 0 0 0 0v0l11.2 11.2c0.4 0.4 0.4 1 0 1.4s-1 0.4-1.4 0l-9.4-9.5v17.2c0 0.5-0.4 1-1 1z"></path>
</symbol>
<symbol id="icon-ok-icon" viewBox="0 0 32 32">
<path fill="#079fac" style="fill: var(--color2, #079fac)" d="M9.703 29.006c-0.413 0-0.826-0.206-1.135-0.516l-8.052-9.187c-0.516-0.619-0.516-1.652 0.103-2.168s1.652-0.516 2.168 0.103l6.813 7.845 3.819-4.439c0.516-0.619 1.548-0.723 2.168-0.103 0.619 0.516 0.723 1.548 0.103 2.168l-4.955 5.677c-0.103 0.413-0.516 0.619-1.032 0.619zM19.716 17.548c-0.31 0-0.723-0.103-1.032-0.413-0.619-0.516-0.723-1.548-0.103-2.168l10.013-11.458c0.516-0.619 1.548-0.723 2.168-0.103 0.619 0.516 0.723 1.548 0.103 2.168l-10.013 11.458c-0.31 0.31-0.723 0.516-1.135 0.516z"></path>
</symbol>
<symbol id="icon-telegram-icon" viewBox="0 0 32 32">
<path fill="#079fac" style="fill: var(--color2, #079fac)" d="M16 0c8.837 0 16 7.163 16 16s-7.163 16-16 16c-8.837 0-16-7.163-16-16s7.163-16 16-16z"></path>
<path fill="#fcfdfe" style="fill: var(--color3, #fcfdfe)" d="M22.4 10.082l-2.404 12.552c0 0-0.336 0.87-1.261 0.453l-5.547-4.405-0.026-0.013c0.749-0.697 6.56-6.107 6.814-6.352 0.393-0.38 0.149-0.606-0.307-0.319l-8.583 5.645-3.311-1.154c0 0-0.521-0.192-0.571-0.609s0.588-0.644 0.588-0.644l13.499-5.484c0 0 1.11-0.505 1.11 0.331z"></path>
</symbol>
<symbol id="icon-whatsapp-icon" viewBox="0 0 32 32">
<path fill="#079fac" style="fill: var(--color2, #079fac)" d="M16 0c8.837 0 16 7.163 16 16s-7.163 16-16 16c-8.837 0-16-7.163-16-16s7.163-16 16-16z"></path>
<path fill="#fcfdfe" style="fill: var(--color3, #fcfdfe)" d="M22.341 9.65c-1.58-1.575-3.688-2.45-5.912-2.45-4.624 0-8.371 3.733-8.371 8.342 0 1.458 0.41 2.917 1.112 4.142l-1.171 4.317 4.449-1.167c1.229 0.642 2.576 0.992 3.98 0.992 4.624 0 8.371-3.733 8.371-8.342-0.059-2.158-0.878-4.258-2.459-5.833zM20.468 18.517c-0.176 0.467-0.995 0.933-1.405 0.992-0.351 0.058-0.819 0.058-1.288-0.058-0.293-0.117-0.703-0.233-1.171-0.467-2.107-0.875-3.454-2.975-3.571-3.15-0.117-0.117-0.878-1.108-0.878-2.158s0.527-1.517 0.703-1.75c0.176-0.233 0.41-0.233 0.585-0.233 0.117 0 0.293 0 0.41 0s0.293-0.058 0.468 0.35c0.176 0.408 0.585 1.458 0.644 1.517 0.059 0.117 0.059 0.233 0 0.35s-0.117 0.233-0.234 0.35c-0.117 0.117-0.234 0.292-0.293 0.35-0.117 0.117-0.234 0.233-0.117 0.408 0.117 0.233 0.527 0.875 1.171 1.458 0.819 0.7 1.463 0.933 1.698 1.050s0.351 0.058 0.468-0.058c0.117-0.117 0.527-0.583 0.644-0.817s0.293-0.175 0.468-0.117c0.176 0.058 1.229 0.583 1.405 0.7 0.234 0.117 0.351 0.175 0.41 0.233 0.059 0.175 0.059 0.583-0.117 1.050z"></path>
</symbol>
<symbol id="icon-viber-icon" viewBox="0 0 32 32">
<path fill="#079fac" style="fill: var(--color2, #079fac)" d="M16 0c8.837 0 16 7.163 16 16s-7.163 16-16 16c-8.837 0-16-7.163-16-16s7.163-16 16-16z"></path>
<path fill="#fcfdfe" style="fill: var(--color3, #fcfdfe)" d="M21.003 7.637c-3.049-0.582-6.216-0.582-9.265 0-1.349 0.291-3.049 1.922-3.342 3.203-0.528 2.504-0.528 5.066 0 7.57 0.352 1.281 2.052 2.912 3.342 3.203 0.059 0 0.117 0.058 0.117 0.117v3.669c0 0.175 0.235 0.291 0.352 0.116l1.759-1.805c0 0 1.407-1.456 1.642-1.689 0 0 0.059-0.058 0.117-0.058 1.759 0.058 3.577-0.116 5.336-0.408 1.349-0.291 3.049-1.922 3.342-3.203 0.528-2.504 0.528-5.066 0-7.57-0.352-1.223-2.052-2.853-3.401-3.144zM21.062 18.584c-0.293 0.582-0.645 1.048-1.231 1.339-0.176 0.058-0.352 0.116-0.528 0.175-0.235-0.058-0.41-0.116-0.586-0.175-1.876-0.757-3.636-1.805-5.043-3.319-0.762-0.873-1.407-1.863-1.935-2.912-0.235-0.524-0.469-0.99-0.645-1.514-0.176-0.466 0.117-0.932 0.411-1.281s0.645-0.582 1.056-0.757c0.293-0.175 0.586-0.058 0.821 0.175 0.469 0.582 0.938 1.165 1.29 1.805 0.235 0.408 0.176 0.873-0.235 1.165-0.117 0.058-0.176 0.116-0.293 0.233-0.059 0.058-0.176 0.116-0.235 0.233-0.117 0.175-0.117 0.349-0.059 0.524 0.469 1.339 1.349 2.387 2.697 2.97 0.235 0.116 0.41 0.175 0.704 0.175 0.41-0.058 0.586-0.524 0.88-0.757s0.645-0.233 0.997-0.058c0.293 0.175 0.586 0.408 0.938 0.641 0.293 0.233 0.586 0.408 0.88 0.641 0.176 0.116 0.235 0.408 0.117 0.699zM18.599 14.217c-0.117 0-0.059 0 0 0-0.235 0-0.293-0.116-0.352-0.291 0-0.117 0-0.291-0.059-0.408-0.059-0.233-0.176-0.466-0.41-0.641-0.117-0.058-0.235-0.116-0.352-0.175-0.176-0.058-0.293-0.058-0.469-0.058-0.176-0.058-0.235-0.175-0.235-0.349 0-0.116 0.176-0.233 0.293-0.233 0.938 0.058 1.642 0.582 1.759 1.689 0 0.058 0 0.175 0 0.233 0 0.116-0.059 0.233-0.176 0.233zM18.013 11.655c-0.293-0.116-0.586-0.233-0.938-0.291-0.117 0-0.293-0.058-0.41-0.058-0.176 0-0.293-0.116-0.235-0.291 0-0.175 0.117-0.291 0.293-0.233 0.586 0.058 1.114 0.175 1.642 0.408 1.056 0.524 1.642 1.398 1.818 2.562 0 0.058 0 0.117 0 0.175 0 0.116 0 0.233 0 0.408 0 0.058 0 0.116 0 0.175-0.059 0.233-0.469 0.291-0.528 0 0-0.058-0.059-0.175-0.059-0.233 0-0.524-0.117-1.048-0.352-1.514-0.352-0.524-0.762-0.873-1.231-1.106zM21.179 15.149c-0.176 0-0.293-0.175-0.293-0.349 0-0.349-0.059-0.699-0.117-1.048-0.235-1.863-1.759-3.377-3.577-3.669-0.293-0.058-0.586-0.058-0.821-0.116-0.176 0-0.411 0-0.469-0.233-0.059-0.175 0.117-0.349 0.293-0.349 0.059 0 0.117 0 0.117 0 0.117 0 2.404 0.058 0 0 2.463 0.058 4.515 1.689 4.926 4.134 0.059 0.408 0.117 0.815 0.117 1.281 0.117 0.175 0 0.349-0.176 0.349z"></path>
</symbol>
<symbol id="icon-phone-icon" viewBox="0 0 32 32">
<path fill="#cafaee" style="fill: var(--color1, #cafaee)" d="M19.307 19.229v0zM19.793 18.718v0zM22.371 18.36v0zM24.409 19.533v0zM24.983 23.209v0zM23.468 24.804v0zM22.054 25.561v0zM11.536 20.774v0zM7.069 10.595c-0.020-0.368-0.334-0.65-0.701-0.63s-0.65 0.334-0.63 0.701l1.331-0.071zM13.003 12.592v0zM13.309 12.27v0zM13.476 9.273v0zM12.131 7.37v0zM8.329 6.59c-0.254 0.267-0.243 0.689 0.024 0.942s0.689 0.243 0.943-0.024l-0.967-0.918zM15 17.127v0zM14.646 24.22c0.312 0.196 0.723 0.102 0.919-0.21s0.102-0.723-0.21-0.919l-0.71 1.129zM19.293 24.726c-0.36-0.075-0.714 0.156-0.789 0.516s0.156 0.714 0.516 0.789l0.273-1.305zM19.791 19.688l0.486-0.511-0.967-0.918-0.486 0.511 0.967 0.918zM22.038 18.938l2.038 1.173 0.665-1.156-2.038-1.173-0.665 1.156zM24.499 22.75l-1.515 1.595 0.967 0.918 1.515-1.595-0.967-0.918zM12.019 20.315c-4.157-4.377-4.863-8.079-4.951-9.72l-1.331 0.071c0.104 1.942 0.93 5.949 5.316 10.567l0.967-0.918zM13.486 13.051l0.306-0.322-0.967-0.918-0.306 0.322 0.967 0.918zM14.021 8.888l-1.345-1.902-1.089 0.77 1.345 1.902 1.089-0.77zM13.003 12.592c-0.483-0.459-0.484-0.459-0.485-0.458s-0.001 0.001-0.001 0.001-0.002 0.002-0.003 0.003-0.004 0.004-0.006 0.006-0.008 0.009-0.012 0.014-0.018 0.021-0.029 0.035c-0.021 0.026-0.045 0.059-0.070 0.099-0.051 0.079-0.107 0.185-0.154 0.319-0.097 0.272-0.152 0.637-0.084 1.101 0.134 0.913 0.737 2.168 2.357 3.874l0.967-0.918c-1.532-1.613-1.927-2.624-2.004-3.149-0.037-0.255-0.001-0.401 0.021-0.461 0.011-0.032 0.021-0.047 0.021-0.047s-0.002 0.003-0.007 0.010c-0.003 0.003-0.006 0.008-0.011 0.013-0.002 0.003-0.005 0.005-0.007 0.008-0.001 0.002-0.003 0.003-0.004 0.005s-0.002 0.002-0.002 0.002-0.001 0.001-0.001 0.001-0.001 0.001-0.485-0.458zM14.517 17.586c1.616 1.702 2.818 2.349 3.712 2.495 0.457 0.074 0.822 0.014 1.093-0.093 0.133-0.052 0.238-0.114 0.315-0.169 0.039-0.027 0.070-0.053 0.096-0.076 0.013-0.011 0.024-0.021 0.033-0.031 0.005-0.005 0.009-0.009 0.013-0.013 0.002-0.002 0.004-0.004 0.006-0.006s0.002-0.002 0.003-0.003 0.001-0.001 0.001-0.001 0.001-0.001-0.482-0.46-0.483-0.46-0.482-0.46 0.001-0.001 0.001-0.001 0.002-0.002 0.002-0.002 0.003-0.003 0.004-0.005 0.006-0.006 0.008-0.008 0.009-0.009 0.013-0.012 0.011-0.009 0.012-0.010c0.002-0.002-0.008 0.006-0.033 0.016-0.043 0.017-0.165 0.054-0.39 0.017-0.472-0.077-1.423-0.48-2.959-2.097l-0.967 0.918zM12.676 6.986c-1.037-1.466-3.102-1.706-4.347-0.395l0.967 0.918c0.62-0.653 1.7-0.589 2.292 0.247l1.089-0.77zM22.984 24.345c-0.312 0.329-0.651 0.518-0.995 0.552l0.131 1.327c0.756-0.075 1.373-0.478 1.831-0.961l-0.967-0.918zM13.792 12.729c0.986-1.038 1.058-2.667 0.228-3.841l-1.089 0.77c0.485 0.686 0.415 1.604-0.106 2.153l0.967 0.918zM24.076 20.111c0.948 0.546 1.139 1.886 0.423 2.639l0.967 0.918c1.33-1.401 0.945-3.752-0.725-4.713l-0.665 1.156zM20.276 19.177c0.455-0.479 1.163-0.584 1.762-0.239l0.665-1.156c-1.12-0.644-2.505-0.459-3.394 0.476l0.967 0.918zM15.355 23.091c-1.059-0.666-2.185-1.565-3.336-2.777l-0.967 0.918c1.224 1.288 2.435 2.26 3.593 2.988l0.71-1.129zM21.989 24.897c-0.595 0.059-1.531 0.073-2.696-0.171l-0.273 1.305c1.317 0.276 2.391 0.263 3.1 0.193l-0.131-1.327z"></path>
</symbol>
</defs>
</svg>
