<!-- Generated by IcoMoon.io -->
<svg version="1.1" xmlns="http://www.w3.org/2000/svg" width="32" height="32" viewBox="0 0 32 32">
<title>arrowUp-icon</title>
<path fill="#079fac" d="M16 31.9c-0.6 0-1-0.4-1-1v-4.7c0-0.6 0.4-1 1-1s1 0.4 1 1v4.7c0 0.6-0.4 1-1 1zM16 21.7c-0.6 0-1-0.4-1-1v-17.2l-9.5 9.5c-0.4 0.4-1 0.4-1.4 0s-0.4-1 0-1.4l11.2-11.2c0 0 0 0 0 0s0 0 0.1-0.1v0c0 0 0 0 0 0s0 0 0 0 0 0 0 0c0.1-0.1 0.2-0.1 0.2-0.1 0.1 0 0.2-0.1 0.4-0.1v0c0 0 0 0 0 0s0 0 0 0 0 0 0 0c0.1 0 0.2 0 0.3 0.1 0.1 0 0.2 0.1 0.3 0.2v0c0 0 0 0 0 0v0l11.2 11.2c0.4 0.4 0.4 1 0 1.4s-1 0.4-1.4 0l-9.4-9.5v17.2c0 0.5-0.4 1-1 1z"></path>
</svg>
