<!-- Generated by IcoMoon.io -->
<svg version="1.1" xmlns="http://www.w3.org/2000/svg" width="46" height="46" viewBox="0 0 32 32">
<title>close-icon</title>
<path fill="#0E3B49" d="M18.667 19.259c-0.178 0-0.296-0.059-0.415-0.178l-2.252-2.252-2.252 2.252c-0.237 0.237-0.593 0.237-0.83 0s-0.237-0.593 0-0.83l2.252-2.252-2.252-2.252c-0.237-0.237-0.237-0.593 0-0.83s0.593-0.237 0.83 0l2.252 2.252 2.252-2.252c0.237-0.237 0.593-0.237 0.83 0s0.237 0.593 0 0.83l-2.252 2.252 2.252 2.252c0.237 0.237 0.237 0.593 0 0.83-0.119 0.119-0.237 0.178-0.415 0.178z"></path>
<path fill="#0E3B49" d="M16 27.259c-6.222 0-11.259-5.037-11.259-11.259 0-1.956 0.533-3.911 1.481-5.63 0.178-0.296 0.533-0.356 0.83-0.237 0.296 0.178 0.356 0.533 0.237 0.83-0.889 1.541-1.363 3.259-1.363 5.037 0 5.57 4.504 10.074 10.074 10.074s10.074-4.504 10.074-10.074-4.504-10.074-10.074-10.074c-1.778 0-3.496 0.474-5.037 1.363-0.296 0.178-0.652 0.059-0.83-0.237s-0.059-0.652 0.237-0.83c1.719-0.948 3.674-1.481 5.63-1.481 6.222 0 11.259 5.037 11.259 11.259s-5.037 11.259-11.259 11.259z"></path>
</svg>
