<!-- Generated by IcoMoon.io -->
<svg version="1.1" xmlns="http://www.w3.org/2000/svg" width="32" height="32" viewBox="0 0 32 32">
<title>form-icon</title>
<path fill="#079fac" d="M14.781 26.133v0zM15.086 25.676v0zM12.648 25.676v0zM12.952 26.133v0zM4.762 16.838c0 0.305 0.267 0.571 0.571 0.571s0.571-0.267 0.571-0.571h-1.143zM6.171 21.257c-0.114-0.305-0.457-0.419-0.762-0.305s-0.419 0.457-0.305 0.762l1.067-0.457zM9.905 24.076v0zM7.962 23.771v0zM22.057 21.486v0zM17.829 24.076v0zM19.771 23.771v0zM7.352 10.248v0zM5.981 11.619v0zM11.657 24.343v0zM19.086 10.362c0.305 0.076 0.61-0.152 0.686-0.457s-0.152-0.61-0.457-0.686l-0.229 1.143zM22.781 12.686c-0.076-0.305-0.381-0.495-0.686-0.457-0.305 0.076-0.495 0.381-0.457 0.686l1.143-0.229zM15.276 26.438l0.267-0.457-0.99-0.571-0.267 0.457 0.99 0.571zM12.152 25.981l0.267 0.457 0.99-0.571-0.267-0.457-0.99 0.571zM14.286 25.867c-0.19 0.305-0.686 0.305-0.876 0l-0.99 0.571c0.648 1.067 2.21 1.067 2.819 0l-0.952-0.571zM12.571 10.171h2.552v-1.143h-2.552v1.143zM21.829 16.838v0.838h1.143v-0.838h-1.143zM9.943 23.505c-0.838-0.038-1.333-0.114-1.752-0.267l-0.419 1.067c0.61 0.229 1.257 0.343 2.133 0.343l0.038-1.143zM5.143 21.676c0.495 1.181 1.448 2.133 2.629 2.629l0.419-1.067c-0.914-0.381-1.638-1.105-1.981-1.981l-1.067 0.419zM21.829 17.714c0 0.99 0 1.714-0.038 2.286s-0.114 0.952-0.229 1.257l1.067 0.419c0.19-0.457 0.267-0.99 0.343-1.6 0.038-0.61 0.038-1.371 0.038-2.362h-1.181zM17.829 24.648c0.876-0.038 1.562-0.114 2.133-0.343l-0.419-1.067c-0.381 0.152-0.876 0.229-1.752 0.267l0.038 1.143zM21.562 21.257c-0.381 0.914-1.105 1.638-1.981 1.981l0.419 1.067c1.181-0.495 2.133-1.448 2.629-2.629l-1.067-0.419zM12.571 9.029c-1.371 0-2.476 0-3.314 0.076-0.876 0.076-1.562 0.267-2.171 0.648l0.61 0.99c0.419-0.267 0.914-0.381 1.714-0.457s1.79-0.076 3.2-0.076v-1.181zM5.905 16.838c0-1.41 0-2.438 0.076-3.2 0.076-0.8 0.229-1.295 0.457-1.714l-0.99-0.61c-0.381 0.61-0.533 1.333-0.648 2.171-0.076 0.876-0.076 1.943-0.076 3.314h1.181zM7.086 9.752c-0.648 0.381-1.181 0.952-1.6 1.6l0.99 0.61c0.305-0.495 0.724-0.914 1.219-1.219l-0.61-0.99zM13.143 25.371c-0.229-0.381-0.381-0.686-0.571-0.914-0.19-0.267-0.381-0.457-0.648-0.61l-0.571 0.99c0.076 0.038 0.19 0.114 0.305 0.305 0.152 0.19 0.305 0.457 0.495 0.838l0.99-0.61zM9.905 24.648c0.457 0 0.8 0.038 1.029 0.038 0.229 0.038 0.343 0.076 0.419 0.114l0.571-0.99c-0.267-0.152-0.571-0.229-0.876-0.267s-0.686-0.038-1.143-0.076v1.181zM15.581 25.981c0.229-0.381 0.381-0.648 0.495-0.838s0.229-0.267 0.305-0.305l-0.571-0.99c-0.267 0.152-0.457 0.381-0.648 0.61s-0.343 0.533-0.571 0.914l0.99 0.61zM17.79 23.505c-0.457 0-0.838 0.038-1.143 0.076s-0.61 0.114-0.876 0.267l0.571 0.99c0.076-0.038 0.19-0.076 0.419-0.114s0.571-0.038 1.029-0.038v-1.181zM15.162 10.171c1.905 0 3.086 0 3.924 0.19l0.229-1.105c-0.99-0.19-2.324-0.19-4.152-0.19v1.105zM22.971 16.838c0-1.867 0-3.162-0.19-4.152l-1.105 0.229c0.19 0.838 0.19 2.019 0.19 3.924h1.105z"></path>
<path fill="#079fac" d="M22.4 19.505c-0.305 0-0.571-0.229-0.571-0.533s0.229-0.571 0.533-0.571c0.8-0.038 1.219-0.076 1.6-0.229 0.838-0.343 1.524-1.029 1.867-1.867 0.267-0.648 0.267-1.524 0.267-3.314v-0.8c0-1.562 0-2.705-0.152-3.505-0.038-0.305 0.152-0.61 0.457-0.648s0.61 0.152 0.648 0.457c0.152 0.876 0.152 2.019 0.152 3.695v0.762c0 1.943 0 2.895-0.343 3.733-0.457 1.143-1.333 2.019-2.476 2.476-0.533 0.229-1.181 0.305-1.981 0.343 0 0 0 0 0 0zM10.705 10.171c0 0-0.038 0 0 0-0.343 0-0.571-0.305-0.571-0.61 0.076-1.219 0.267-1.981 0.648-2.629 0.381-0.61 0.914-1.143 1.524-1.524 1.105-0.686 2.476-0.686 5.181-0.686h2.4c1.676 0 2.819 0 3.695 0.152 0.305 0.038 0.533 0.343 0.457 0.648-0.038 0.305-0.343 0.533-0.648 0.457-0.8-0.152-1.943-0.152-3.505-0.152h-2.4c-2.514 0-3.771 0-4.61 0.495-0.457 0.267-0.838 0.686-1.143 1.143-0.267 0.457-0.419 1.067-0.457 2.095-0.038 0.381-0.267 0.61-0.571 0.61z"></path>
<path fill="#079fac" d="M11.2 17.067c0 0.571-0.495 1.067-1.067 1.067s-1.067-0.495-1.067-1.067c0-0.571 0.495-1.067 1.067-1.067s1.067 0.495 1.067 1.067z"></path>
<path fill="#079fac" d="M14.933 17.067c0 0.571-0.495 1.067-1.067 1.067s-1.067-0.495-1.067-1.067c0-0.571 0.495-1.067 1.067-1.067s1.067 0.495 1.067 1.067z"></path>
<path fill="#079fac" d="M18.667 17.067c0 0.571-0.495 1.067-1.067 1.067s-1.067-0.495-1.067-1.067c0-0.571 0.495-1.067 1.067-1.067s1.067 0.495 1.067 1.067z"></path>
</svg>
