<!-- Generated by IcoMoon.io -->
<svg version="1.1" xmlns="http://www.w3.org/2000/svg" width="32" height="32" viewBox="0 0 32 32">
<title>ok-icon</title>
<path fill="#079fac" d="M9.703 29.006c-0.413 0-0.826-0.206-1.135-0.516l-8.052-9.187c-0.516-0.619-0.516-1.652 0.103-2.168s1.652-0.516 2.168 0.103l6.813 7.845 3.819-4.439c0.516-0.619 1.548-0.723 2.168-0.103 0.619 0.516 0.723 1.548 0.103 2.168l-4.955 5.677c-0.103 0.413-0.516 0.619-1.032 0.619zM19.716 17.548c-0.31 0-0.723-0.103-1.032-0.413-0.619-0.516-0.723-1.548-0.103-2.168l10.013-11.458c0.516-0.619 1.548-0.723 2.168-0.103 0.619 0.516 0.723 1.548 0.103 2.168l-10.013 11.458c-0.31 0.31-0.723 0.516-1.135 0.516z"></path>
</svg>
