<!-- Generated by IcoMoon.io -->
<svg version="1.1" xmlns="http://www.w3.org/2000/svg" width="32" height="32" viewBox="0 0 32 32">
<title>phone-icon</title>
<path fill="#cafaee" d="M19.307 19.229v0zM19.793 18.718v0zM22.371 18.36v0zM24.409 19.533v0zM24.983 23.209v0zM23.468 24.804v0zM22.054 25.561v0zM11.536 20.774v0zM7.069 10.595c-0.020-0.368-0.334-0.65-0.701-0.63s-0.65 0.334-0.63 0.701l1.331-0.071zM13.003 12.592v0zM13.309 12.27v0zM13.476 9.273v0zM12.131 7.37v0zM8.329 6.59c-0.254 0.267-0.243 0.689 0.024 0.942s0.689 0.243 0.943-0.024l-0.967-0.918zM15 17.127v0zM14.646 24.22c0.312 0.196 0.723 0.102 0.919-0.21s0.102-0.723-0.21-0.919l-0.71 1.129zM19.293 24.726c-0.36-0.075-0.714 0.156-0.789 0.516s0.156 0.714 0.516 0.789l0.273-1.305zM19.791 19.688l0.486-0.511-0.967-0.918-0.486 0.511 0.967 0.918zM22.038 18.938l2.038 1.173 0.665-1.156-2.038-1.173-0.665 1.156zM24.499 22.75l-1.515 1.595 0.967 0.918 1.515-1.595-0.967-0.918zM12.019 20.315c-4.157-4.377-4.863-8.079-4.951-9.72l-1.331 0.071c0.104 1.942 0.93 5.949 5.316 10.567l0.967-0.918zM13.486 13.051l0.306-0.322-0.967-0.918-0.306 0.322 0.967 0.918zM14.021 8.888l-1.345-1.902-1.089 0.77 1.345 1.902 1.089-0.77zM13.003 12.592c-0.483-0.459-0.484-0.459-0.485-0.458s-0.001 0.001-0.001 0.001-0.002 0.002-0.003 0.003-0.004 0.004-0.006 0.006-0.008 0.009-0.012 0.014-0.018 0.021-0.029 0.035c-0.021 0.026-0.045 0.059-0.070 0.099-0.051 0.079-0.107 0.185-0.154 0.319-0.097 0.272-0.152 0.637-0.084 1.101 0.134 0.913 0.737 2.168 2.357 3.874l0.967-0.918c-1.532-1.613-1.927-2.624-2.004-3.149-0.037-0.255-0.001-0.401 0.021-0.461 0.011-0.032 0.021-0.047 0.021-0.047s-0.002 0.003-0.007 0.010c-0.003 0.003-0.006 0.008-0.011 0.013-0.002 0.003-0.005 0.005-0.007 0.008-0.001 0.002-0.003 0.003-0.004 0.005s-0.002 0.002-0.002 0.002-0.001 0.001-0.001 0.001-0.001 0.001-0.485-0.458zM14.517 17.586c1.616 1.702 2.818 2.349 3.712 2.495 0.457 0.074 0.822 0.014 1.093-0.093 0.133-0.052 0.238-0.114 0.315-0.169 0.039-0.027 0.070-0.053 0.096-0.076 0.013-0.011 0.024-0.021 0.033-0.031 0.005-0.005 0.009-0.009 0.013-0.013 0.002-0.002 0.004-0.004 0.006-0.006s0.002-0.002 0.003-0.003 0.001-0.001 0.001-0.001 0.001-0.001-0.482-0.46-0.483-0.46-0.482-0.46 0.001-0.001 0.001-0.001 0.002-0.002 0.002-0.002 0.003-0.003 0.004-0.005 0.006-0.006 0.008-0.008 0.009-0.009 0.013-0.012 0.011-0.009 0.012-0.010c0.002-0.002-0.008 0.006-0.033 0.016-0.043 0.017-0.165 0.054-0.39 0.017-0.472-0.077-1.423-0.48-2.959-2.097l-0.967 0.918zM12.676 6.986c-1.037-1.466-3.102-1.706-4.347-0.395l0.967 0.918c0.62-0.653 1.7-0.589 2.292 0.247l1.089-0.77zM22.984 24.345c-0.312 0.329-0.651 0.518-0.995 0.552l0.131 1.327c0.756-0.075 1.373-0.478 1.831-0.961l-0.967-0.918zM13.792 12.729c0.986-1.038 1.058-2.667 0.228-3.841l-1.089 0.77c0.485 0.686 0.415 1.604-0.106 2.153l0.967 0.918zM24.076 20.111c0.948 0.546 1.139 1.886 0.423 2.639l0.967 0.918c1.33-1.401 0.945-3.752-0.725-4.713l-0.665 1.156zM20.276 19.177c0.455-0.479 1.163-0.584 1.762-0.239l0.665-1.156c-1.12-0.644-2.505-0.459-3.394 0.476l0.967 0.918zM15.355 23.091c-1.059-0.666-2.185-1.565-3.336-2.777l-0.967 0.918c1.224 1.288 2.435 2.26 3.593 2.988l0.71-1.129zM21.989 24.897c-0.595 0.059-1.531 0.073-2.696-0.171l-0.273 1.305c1.317 0.276 2.391 0.263 3.1 0.193l-0.131-1.327z"></path>
</svg>
