<!-- Generated by IcoMoon.io -->
<svg version="1.1" xmlns="http://www.w3.org/2000/svg" width="32" height="32" viewBox="0 0 32 32">
<title>telegram-icon</title>
<path fill="#079fac" d="M16 0c8.837 0 16 7.163 16 16s-7.163 16-16 16c-8.837 0-16-7.163-16-16s7.163-16 16-16z"></path>
<path fill="#fcfdfe" d="M22.4 10.082l-2.404 12.552c0 0-0.336 0.87-1.261 0.453l-5.547-4.405-0.026-0.013c0.749-0.697 6.56-6.107 6.814-6.352 0.393-0.38 0.149-0.606-0.307-0.319l-8.583 5.645-3.311-1.154c0 0-0.521-0.192-0.571-0.609s0.588-0.644 0.588-0.644l13.499-5.484c0 0 1.11-0.505 1.11 0.331z"></path>
</svg>
