<!-- Generated by IcoMoon.io -->
<svg version="1.1" xmlns="http://www.w3.org/2000/svg" width="32" height="32" viewBox="0 0 32 32">
<title>viber-icon</title>
<path fill="#079fac" d="M16 0c8.837 0 16 7.163 16 16s-7.163 16-16 16c-8.837 0-16-7.163-16-16s7.163-16 16-16z"></path>
<path fill="#fcfdfe" d="M21.003 7.637c-3.049-0.582-6.216-0.582-9.265 0-1.349 0.291-3.049 1.922-3.342 3.203-0.528 2.504-0.528 5.066 0 7.57 0.352 1.281 2.052 2.912 3.342 3.203 0.059 0 0.117 0.058 0.117 0.117v3.669c0 0.175 0.235 0.291 0.352 0.116l1.759-1.805c0 0 1.407-1.456 1.642-1.689 0 0 0.059-0.058 0.117-0.058 1.759 0.058 3.577-0.116 5.336-0.408 1.349-0.291 3.049-1.922 3.342-3.203 0.528-2.504 0.528-5.066 0-7.57-0.352-1.223-2.052-2.853-3.401-3.144zM21.062 18.584c-0.293 0.582-0.645 1.048-1.231 1.339-0.176 0.058-0.352 0.116-0.528 0.175-0.235-0.058-0.41-0.116-0.586-0.175-1.876-0.757-3.636-1.805-5.043-3.319-0.762-0.873-1.407-1.863-1.935-2.912-0.235-0.524-0.469-0.99-0.645-1.514-0.176-0.466 0.117-0.932 0.411-1.281s0.645-0.582 1.056-0.757c0.293-0.175 0.586-0.058 0.821 0.175 0.469 0.582 0.938 1.165 1.29 1.805 0.235 0.408 0.176 0.873-0.235 1.165-0.117 0.058-0.176 0.116-0.293 0.233-0.059 0.058-0.176 0.116-0.235 0.233-0.117 0.175-0.117 0.349-0.059 0.524 0.469 1.339 1.349 2.387 2.697 2.97 0.235 0.116 0.41 0.175 0.704 0.175 0.41-0.058 0.586-0.524 0.88-0.757s0.645-0.233 0.997-0.058c0.293 0.175 0.586 0.408 0.938 0.641 0.293 0.233 0.586 0.408 0.88 0.641 0.176 0.116 0.235 0.408 0.117 0.699zM18.599 14.217c-0.117 0-0.059 0 0 0-0.235 0-0.293-0.116-0.352-0.291 0-0.117 0-0.291-0.059-0.408-0.059-0.233-0.176-0.466-0.41-0.641-0.117-0.058-0.235-0.116-0.352-0.175-0.176-0.058-0.293-0.058-0.469-0.058-0.176-0.058-0.235-0.175-0.235-0.349 0-0.116 0.176-0.233 0.293-0.233 0.938 0.058 1.642 0.582 1.759 1.689 0 0.058 0 0.175 0 0.233 0 0.116-0.059 0.233-0.176 0.233zM18.013 11.655c-0.293-0.116-0.586-0.233-0.938-0.291-0.117 0-0.293-0.058-0.41-0.058-0.176 0-0.293-0.116-0.235-0.291 0-0.175 0.117-0.291 0.293-0.233 0.586 0.058 1.114 0.175 1.642 0.408 1.056 0.524 1.642 1.398 1.818 2.562 0 0.058 0 0.117 0 0.175 0 0.116 0 0.233 0 0.408 0 0.058 0 0.116 0 0.175-0.059 0.233-0.469 0.291-0.528 0 0-0.058-0.059-0.175-0.059-0.233 0-0.524-0.117-1.048-0.352-1.514-0.352-0.524-0.762-0.873-1.231-1.106zM21.179 15.149c-0.176 0-0.293-0.175-0.293-0.349 0-0.349-0.059-0.699-0.117-1.048-0.235-1.863-1.759-3.377-3.577-3.669-0.293-0.058-0.586-0.058-0.821-0.116-0.176 0-0.411 0-0.469-0.233-0.059-0.175 0.117-0.349 0.293-0.349 0.059 0 0.117 0 0.117 0 0.117 0 2.404 0.058 0 0 2.463 0.058 4.515 1.689 4.926 4.134 0.059 0.408 0.117 0.815 0.117 1.281 0.117 0.175 0 0.349-0.176 0.349z"></path>
</svg>
