<!-- Generated by IcoMoon.io -->
<svg version="1.1" xmlns="http://www.w3.org/2000/svg" width="32" height="32" viewBox="0 0 32 32">
<title>whatsapp-icon</title>
<path fill="#079fac" d="M16 0c8.837 0 16 7.163 16 16s-7.163 16-16 16c-8.837 0-16-7.163-16-16s7.163-16 16-16z"></path>
<path fill="#fcfdfe" d="M22.341 9.65c-1.58-1.575-3.688-2.45-5.912-2.45-4.624 0-8.371 3.733-8.371 8.342 0 1.458 0.41 2.917 1.112 4.142l-1.171 4.317 4.449-1.167c1.229 0.642 2.576 0.992 3.98 0.992 4.624 0 8.371-3.733 8.371-8.342-0.059-2.158-0.878-4.258-2.459-5.833zM20.468 18.517c-0.176 0.467-0.995 0.933-1.405 0.992-0.351 0.058-0.819 0.058-1.288-0.058-0.293-0.117-0.703-0.233-1.171-0.467-2.107-0.875-3.454-2.975-3.571-3.15-0.117-0.117-0.878-1.108-0.878-2.158s0.527-1.517 0.703-1.75c0.176-0.233 0.41-0.233 0.585-0.233 0.117 0 0.293 0 0.41 0s0.293-0.058 0.468 0.35c0.176 0.408 0.585 1.458 0.644 1.517 0.059 0.117 0.059 0.233 0 0.35s-0.117 0.233-0.234 0.35c-0.117 0.117-0.234 0.292-0.293 0.35-0.117 0.117-0.234 0.233-0.117 0.408 0.117 0.233 0.527 0.875 1.171 1.458 0.819 0.7 1.463 0.933 1.698 1.050s0.351 0.058 0.468-0.058c0.117-0.117 0.527-0.583 0.644-0.817s0.293-0.175 0.468-0.117c0.176 0.058 1.229 0.583 1.405 0.7 0.234 0.117 0.351 0.175 0.41 0.233 0.059 0.175 0.059 0.583-0.117 1.050z"></path>
</svg>
